<svg data-v-0dd9719b="" version="1.0" xmlns="http://www.w3.org/2000/svg" xmlns:xlink="http://www.w3.org/1999/xlink" width="100%" height="100%" viewBox="0 0 340.000000 250.000000" preserveAspectRatio="xMidYMid meet" color-interpolation-filters="sRGB" style="margin: auto;"> <rect data-v-0dd9719b="" x="0" y="0" width="100%" height="100%" fill="#fff" fill-opacity="1" class="background"></rect> <rect data-v-0dd9719b="" x="0" y="0" width="100%" height="100%" fill="url(#watermark)" fill-opacity="1" class="watermarklayer"></rect> <g data-v-0dd9719b="" fill="#333" class="icon-text-wrapper icon-svg-group iconsvg" transform="translate(77.7449951171875,75.87011337280273)"><g class="iconsvg-imagesvg" transform="translate(62.2550048828125,0)"><g><rect fill="#333" fill-opacity="0" stroke-width="2" x="0" y="0" width="60" height="69.36977558877597" class="image-rect"></rect> <svg x="0" y="0" width="60" height="69.36977558877597" filtersec="colorsb6526389594" class="image-svg-svg primary" style="overflow: visible;"><svg xmlns="http://www.w3.org/2000/svg" viewBox="-0.017007717862725258 0.0027655363082885742 128.2122039794922 148.2342987060547"><path d="M0 70.12C0 60 .1 49.9 0 39.78a5.48 5.48 0 0 1 3.13-5.39q28.7-16.45 57.29-33.1c2.78-1.62 4.94-1.81 7.91 0 10.85 6.53 21.94 12.67 32.92 19 8.34 4.8 16.63 9.68 25 14.48a3.46 3.46 0 0 1 1.94 3.3v25.52c0 2.65-.5 2.85-2.76 1.64Q101.31 52.3 77.22 39.44c-3.75-2-7.53-4-11.24-6a3 3 0 0 0-3.34.07Q46.4 42.39 30.07 51.15a4.38 4.38 0 0 0-2.64 4.37q.13 14.57 0 29.13c0 2.48 1.06 2.9 3.2 2.93s3.14-.61 3.11-3c-.11-8.34.06-16.69-.11-25a5 5 0 0 1 3-5.13c7.19-3.82 14.3-7.7 21.46-11.45 2.56-1.35 3.51-.75 3.52 2.17v55.88c0 3.17-.65 3.81-3.84 3.82H3.84c-3.14 0-3.78-.66-3.79-3.87C0 90.67.05 80.4 0 70.12z" fill="#303e8f"></path><path d="M67.91 73.22v-27c0-3.81.42-4.15 4-2.32 5.35 2.75 10.57 5.73 15.87 8.57q16.55 8.85 33.1 17.67a12.09 12.09 0 0 0 1.88 1c4.5 1.42 5.18 4.63 5.05 8.93-.31 9.78-.14 19.57-.07 29.36a4.16 4.16 0 0 1-2.4 4.2c-12.36 7-24.65 14.07-36.95 21.16-7.36 4.24-14.71 8.5-22 12.84a3.46 3.46 0 0 1-4-.06Q39 134.06 15.53 120.54c-4-2.32-8.1-4.56-12.11-6.91-.76-.44-2.14-.73-1.76-1.92.31-1 1.54-.59 2.38-.59H99.14c1.74.07 2.45-.76 2.45-2.47V77.11c0-1.86-.8-2.66-2.62-2.54h-1.2c-3.71 0-3.81.09-3.81 3.75 0 7.7-.06 15.41 0 23.11 0 2.16-.69 3-2.91 3-6.74-.1-13.49-.08-20.23 0-2.18 0-3-.83-3-3 .18-9.43.09-18.82.09-28.21z" fill="#fb941c"></path></svg></svg> <!----></g></g> <g transform="translate(0,76.3697738647461)"><g data-gra="path-name" fill-rule="" class="tp-name iconsvg-namesvg"><g transform="scale(1)"><g><path d="M20.55-16.43L20.55-16.43Q20.55-15.46 20.27-14.68 19.98-13.91 19.48-13.31 18.98-12.71 18.31-12.24 17.63-11.77 16.83-11.37L16.83-11.37Q17.2-11.23 17.7-10.95 18.2-10.66 18.67-10.16 19.14-9.66 19.46-8.87 19.78-8.08 19.78-6.94L19.78-6.94Q19.78-5.43 19.14-4.16 18.51-2.88 17.25-1.96 15.99-1.04 14.16-0.52 12.34 0 9.96 0L9.96 0 0 0 4.53-21.29 13.34-21.29Q14.65-21.29 15.94-21.1 17.23-20.92 18.25-20.38 19.28-19.85 19.91-18.89 20.55-17.94 20.55-16.43ZM9.89-12.37L11.43-12.37Q12.17-12.37 12.69-12.81 13.21-13.24 13.54-13.9 13.88-14.55 14.05-15.3 14.21-16.06 14.21-16.66L14.21-16.66Q14.21-17.63 13.76-18.32 13.31-19.01 12.34-19.01L12.34-19.01 11.33-19.01 9.89-12.37ZM7.68-2.11L9.02-2.11Q10.02-2.11 10.69-2.68 11.37-3.25 11.8-4.09 12.24-4.93 12.42-5.85 12.61-6.77 12.61-7.48L12.61-7.48Q12.61-8.65 12.12-9.34 11.63-10.02 10.56-10.02L10.56-10.02 9.32-10.02 7.68-2.11ZM34.63-21.62L34.63-21.62Q37.52-21.62 39.31-20.89 41.1-20.15 42.14-18.61L42.14-18.61Q42.81-17.57 43.18-16.26 43.55-14.95 43.55-13.24L43.55-13.24Q43.55-11.77 43.28-10.29 43.01-8.82 42.53-7.46 42.04-6.1 41.35-4.91 40.67-3.72 39.83-2.82L39.83-2.82Q38.25-1.11 36.19-0.42 34.13 0.27 31.11 0.27L31.11 0.27Q28.2 0.27 26.42-0.34 24.64-0.94 23.6-2.28L23.6-2.28Q22.86-3.22 22.45-4.66 22.03-6.1 22.03-8.28L22.03-8.28Q22.03-12 23.35-14.94 24.67-17.87 27.12-19.58L27.12-19.58Q28.6-20.62 30.41-21.12 32.22-21.62 34.63-21.62ZM30.84-2.08L30.84-2.08Q31.61-2.08 32.3-2.77 32.99-3.45 33.58-4.61 34.16-5.77 34.65-7.24 35.14-8.72 35.47-10.29 35.81-11.87 35.99-13.43 36.17-14.99 36.17-16.26L36.17-16.26Q36.17-18 35.82-18.66 35.47-19.31 34.8-19.31L34.8-19.31Q34.03-19.31 33.32-18.64 32.62-17.97 32-16.85 31.38-15.72 30.89-14.27 30.41-12.81 30.06-11.26 29.7-9.72 29.52-8.21 29.34-6.71 29.34-5.43L29.34-5.43Q29.34-3.52 29.75-2.8 30.17-2.08 30.84-2.08ZM47.14 0L45.73-21.29 53.91-21.29 54.48-6.77 60.08-21.29 66.72-21.29 67.59-6.77 73.22-21.29 76.74-21.29 68.46 0 60.92 0 60.21-12.04 55.18 0 47.14 0ZM88.54-21.62L88.54-21.62Q91.42-21.62 93.22-20.89 95.01-20.15 96.05-18.61L96.05-18.61Q96.72-17.57 97.09-16.26 97.46-14.95 97.46-13.24L97.46-13.24Q97.46-11.77 97.19-10.29 96.92-8.82 96.44-7.46 95.95-6.1 95.26-4.91 94.58-3.72 93.74-2.82L93.74-2.82Q92.16-1.11 90.1-0.42 88.04 0.27 85.02 0.27L85.02 0.27Q82.1 0.27 80.33-0.34 78.55-0.94 77.51-2.28L77.51-2.28Q76.77-3.22 76.36-4.66 75.94-6.1 75.94-8.28L75.94-8.28Q75.94-12 77.26-14.94 78.58-17.87 81.03-19.58L81.03-19.58Q82.51-20.62 84.32-21.12 86.13-21.62 88.54-21.62ZM84.75-2.08L84.75-2.08Q85.52-2.08 86.21-2.77 86.9-3.45 87.49-4.61 88.07-5.77 88.56-7.24 89.04-8.72 89.38-10.29 89.72-11.87 89.9-13.43 90.08-14.99 90.08-16.26L90.08-16.26Q90.08-18 89.73-18.66 89.38-19.31 88.71-19.31L88.71-19.31Q87.94-19.31 87.23-18.64 86.53-17.97 85.91-16.85 85.29-15.72 84.8-14.27 84.32-12.81 83.97-11.26 83.61-9.72 83.43-8.21 83.24-6.71 83.24-5.43L83.24-5.43Q83.24-3.52 83.66-2.8 84.08-2.08 84.75-2.08Z" transform="translate(0, 21.6200008392334)"></path></g> <!----> <!----> <!----> <!----> <!----> <!----> <g data-gra="path-name-1" fill="#333" transform="translate(100.45999908447266,0)"><g transform="scale(1)"><path d="M23.2-21.29L18.61 0 11.37 0 13.38-9.49 9.25-9.49 7.24 0 0 0 4.53-21.29 11.8-21.29 9.82-12.04 13.91-12.04 15.89-21.29 23.2-21.29ZM36.11-21.62L36.11-21.62Q38.99-21.62 40.78-20.89 42.58-20.15 43.62-18.61L43.62-18.61Q44.29-17.57 44.66-16.26 45.03-14.95 45.03-13.24L45.03-13.24Q45.03-11.77 44.76-10.29 44.49-8.82 44-7.46 43.52-6.1 42.83-4.91 42.14-3.72 41.3-2.82L41.3-2.82Q39.73-1.11 37.67-0.42 35.6 0.27 32.59 0.27L32.59 0.27Q29.67 0.27 27.89-0.34 26.12-0.94 25.08-2.28L25.08-2.28Q24.34-3.22 23.92-4.66 23.5-6.1 23.5-8.28L23.5-8.28Q23.5-12 24.83-14.94 26.15-17.87 28.6-19.58L28.6-19.58Q30.07-20.62 31.88-21.12 33.69-21.62 36.11-21.62ZM32.32-2.08L32.32-2.08Q33.09-2.08 33.78-2.77 34.46-3.45 35.05-4.61 35.64-5.77 36.12-7.24 36.61-8.72 36.95-10.29 37.28-11.87 37.47-13.43 37.65-14.99 37.65-16.26L37.65-16.26Q37.65-18 37.3-18.66 36.95-19.31 36.27-19.31L36.27-19.31Q35.5-19.31 34.8-18.64 34.1-17.97 33.48-16.85 32.86-15.72 32.37-14.27 31.88-12.81 31.53-11.26 31.18-9.72 30.99-8.21 30.81-6.71 30.81-5.43L30.81-5.43Q30.81-3.52 31.23-2.8 31.65-2.08 32.32-2.08ZM54.51-9.19L56.06-9.19Q57.06-9.19 57.75-10.02 58.44-10.86 58.89-12.07 59.34-13.28 59.54-14.58 59.74-15.89 59.74-16.86L59.74-16.86Q59.74-17.77 59.44-18.39 59.14-19.01 58.13-19.01L58.13-19.01 56.63-19.01 54.51-9.19ZM55.95-7.04L54.04-7.04 52.53 0 45.29 0 49.82-21.29 57.56-21.29Q59.47-21.29 61.05-21.09 62.63-20.89 63.77-20.28 64.91-19.68 65.54-18.56 66.18-17.43 66.18-15.56L66.18-15.56Q66.18-13.81 65.63-12.25 65.07-10.69 63.85-9.54 62.63-8.38 60.68-7.71 58.74-7.04 55.95-7.04L55.95-7.04ZM65.41 0L69.93-21.29 84.05-21.29 83.51-18.74 76.67-18.74 75.27-12.27 81-12.27 80.46-9.76 74.73-9.76 73.19-2.58 80.03-2.58 79.52 0 65.41 0Z" transform="translate(0, 21.6200008392334)"></path></g></g></g></g> <!----></g></g></svg>